<?xml version="1.0" encoding="UTF-8" standalone="no"?>
<svg
   width="97.864082"
   height="27.5257"
   viewBox="0 0 97.864082 27.5257"
   fill="none"
   version="1.1"
   id="svg3070"
   sodipodi:docname="MIF-logo.svg"
   inkscape:version="1.2.2 (732a01da63, 2022-12-09, custom)"
   xmlns:inkscape="http://www.inkscape.org/namespaces/inkscape"
   xmlns:sodipodi="http://sodipodi.sourceforge.net/DTD/sodipodi-0.dtd"
   xmlns="http://www.w3.org/2000/svg"
   xmlns:svg="http://www.w3.org/2000/svg">
  <defs
     id="defs3074" />
  <sodipodi:namedview
     id="namedview3072"
     pagecolor="#ffffff"
     bordercolor="#000000"
     borderopacity="0.25"
     inkscape:showpageshadow="2"
     inkscape:pageopacity="0.0"
     inkscape:pagecheckerboard="0"
     inkscape:deskcolor="#d1d1d1"
     showgrid="false"
     inkscape:zoom="2.8433735"
     inkscape:cx="113.59746"
     inkscape:cy="31.476695"
     inkscape:window-width="1920"
     inkscape:window-height="1016"
     inkscape:window-x="0"
     inkscape:window-y="0"
     inkscape:window-maximized="1"
     inkscape:current-layer="svg3070" />
  <path
     d="m 97.86408,7.64017 c -0.2396,-0.30419 -0.673,-0.58716 -0.673,-0.58716 0,0 -8.2827,-6.67454 -48.2591,-7.05301 C 8.95568,0.37847 0.67291,7.05655 0.67291,7.05655 c 0,0 -0.43334,0.28297 -0.67291,0.58716 V 9.674 8.02218 18.5593 c 0,0 0.32765,0.7286 1.98349,1.5917 4.32634,2.2602 16.63949,6.9469 46.94849,7.3536 30.3091,-0.4103 42.6222,-5.097 46.9486,-7.3536 1.6558,-0.8631 1.9835,-1.5917 1.9835,-1.5917 z M 7.26106,11.7468 c 6.56352,-1.8959 19.03522,-4.13139 41.66742,-4.34361 22.6323,0.21222 35.104,2.44771 41.6674,4.34361 -6.7995,2.2637 -19.3593,4.8812 -41.6674,5.1818 C 26.62038,16.628 14.06408,14.007 7.26106,11.7468 Z"
     fill="#ffffff"
     id="path2982" />
  <path
     d="M 78.83248,1.96313 V 9.3663 c 3.2131,0.4598 5.8977,0.9657 8.1348,1.4715 V 3.43811 c -2.2371,-0.50934 -4.9252,-1.01515 -8.1348,-1.47498 z"
     fill="#df1b12"
     id="path2984" />
  <path
     d="M 76.85598,1.69434 V 9.0975 c 0.6799,0.0885 1.3387,0.1769 1.9764,0.2688 V 1.96316 c -0.6377,-0.08843 -1.2965,-0.1804 -1.9764,-0.26882 z"
     fill="#ffffff"
     id="path2986" />
  <path
     d="m 72.15258,1.16382 v 7.40319 c 1.6699,0.16624 3.2377,0.34663 4.7033,0.53409 V 1.69439 c -1.4656,-0.18747 -3.0298,-0.36433 -4.7033,-0.53057 z"
     fill="#0e3b83"
     id="path2988" />
  <path
     d="M 71.05008,1.05762 V 8.4608 c 0.3734,0.03538 0.7398,0.07075 1.1027,0.10612 V 1.16373 c -0.3629,-0.03891 -0.7293,-0.07428 -1.1027,-0.10611 z"
     fill="#ffffff"
     id="path2990" />
  <path
     d="m 66.73068,0.70044 v 7.40319 c 1.5114,0.10965 2.9489,0.22637 4.3193,0.35725 V 1.05769 c -1.3704,-0.13088 -2.8079,-0.2476 -4.3193,-0.35725 z"
     fill="#f39000"
     id="path2992" />
  <path
     d="m 57.45798,0.20874 v 7.40319 c 3.354,0.12026 6.4402,0.2865 9.2728,0.49166 V 0.7004 C 63.89818,0.49525 60.81198,0.329 57.45798,0.20874 Z"
     fill="#c5b300"
     id="path2994" />
  <path
     d="m 52.71948,0.07788 v 7.40319 c 1.6382,0.03183 3.2166,0.07782 4.7385,0.13087 V 0.20875 c -1.5255,-0.05305 -3.1038,-0.0955 -4.7385,-0.13087 z"
     fill="#df1b12"
     id="path2996" />
  <path
     d="m 50.28488,0.03882 v 7.40319 c 0.8244,0.01061 1.6383,0.02476 2.4345,0.0389 V 0.07773 c -0.7998,-0.01415 -1.6101,-0.0283 -2.4345,-0.03891 z"
     fill="#ffffff"
     id="path2998" />
  <path
     d="m 48.93218,0.02124 c -0.7716,0.00707 -1.529,0.01769 -2.2759,0.0283 v 7.40319 c 0.7469,-0.01062 1.5043,-0.02123 2.2759,-0.0283 0.4545,0.00354 0.9054,0.01061 1.3528,0.01415 V 0.03893 c -0.4474,-0.00708 -0.8983,-0.01415 -1.3528,-0.01769 z"
     fill="#f39000"
     id="path3000" />
  <path
     d="m 45.66968,0.06725 v 7.40319 c 0.3241,-0.00708 0.6553,-0.01062 0.9829,-0.01769 V 0.04956 c -0.3276,0.00707 -0.6553,0.01415 -0.9829,0.01769 z"
     fill="#ffffff"
     id="path3002" />
  <path
     d="m 39.12378,0.25814 v 7.40319 c 2.0751,-0.08135 4.2524,-0.14856 6.5459,-0.191 V 0.06714 c -2.29,0.04244 -4.4708,0.10965 -6.5459,0.191 z"
     fill="#df1b12"
     id="path3004" />
  <path
     d="m 39.12378,0.2583 c -0.532,0.02122 -1.057,0.04245 -1.5784,0.06721 v 7.40318 c 0.5179,-0.02476 1.0429,-0.04598 1.5784,-0.0672 z"
     fill="#ffffff"
     id="path3006" />
  <path
     d="m 34.69878,0.47046 v 7.40319 c 0.9195,-0.05306 1.8637,-0.09904 2.8325,-0.14502 V 0.32544 c -0.9688,0.04598 -1.913,0.0955 -2.8325,0.14502 z"
     fill="#f39000"
     id="path3008" />
  <path
     d="m 26.66628,8.47142 c 2.452,-0.22991 5.1261,-0.43506 8.0326,-0.59777 V 0.47046 c -2.9065,0.16624 -5.5806,0.36786 -8.0326,0.59777 z"
     fill="#4c5c0f"
     id="path3010" />
  <path
     d="m 23.93578,1.34755 v 7.40319 c 0.8773,-0.09551 1.7897,-0.18747 2.7304,-0.2759 V 1.06812 c -0.9407,0.08842 -1.8496,0.18393 -2.7304,0.27943 z"
     fill="#ffffff"
     id="path3012" />
  <path
     d="M 19.20438,1.93835 V 9.3415 c 1.4656,-0.2086 3.0439,-0.40673 4.735,-0.59419 V 1.34766 c -1.6946,0.18393 -3.2694,0.38554 -4.735,0.59069 z"
     fill="#0e3b83"
     id="path3014" />
  <path
     d="M 15.80098,2.46904 V 9.8722 c 1.064,-0.1804 2.1984,-0.3608 3.4033,-0.5305 V 1.93848 c -1.2084,0.17332 -2.3428,0.35017 -3.4033,0.53056 z"
     fill="#ffffff"
     id="path3016" />
  <path
     d="m 11.39718,3.32498 v 7.40322 c 1.3141,-0.2901 2.7797,-0.5766 4.4039,-0.856 V 2.46899 c -1.6277,0.27944 -3.0898,0.56594 -4.4039,0.85599 z"
     fill="#f39000"
     id="path3018" />
  <path
     d="M 88.30578,10.6751 V 3.75291 C 87.87948,3.6468 87.43208,3.54068 86.96708,3.43457 v 7.40323 c 0.1409,0.0318 0.2748,0.0636 0.4122,0.0955 0,0 0,0 0.0035,0 0.3171,-0.0849 0.6236,-0.1698 0.923,-0.2582 z"
     fill="#f39000"
     id="path3020" />
  <path
     d="m 95.93338,6.3421 c -1.2683,-0.63314 -3.6217,-1.59878 -7.6275,-2.58917 v 6.92217 c 2.431,-0.6968 4.2982,-1.3901 5.7109,-1.9985 0.2255,-0.09904 0.4651,-0.21223 0.7046,-0.32895 0.9266,-0.47751 2.3182,-1.37241 1.212,-2.00555 z"
     fill="#c5b300"
     id="path3022" />
  <path
     d="M 1.99396,6.31028 C 0.76793,6.9505 2.23001,7.88076 3.17419,8.36181 3.39615,8.47146 3.61458,8.57403 3.82244,8.666 3.83653,8.67307 3.85062,8.67661 3.85062,8.67661 H 3.8471 c 1.58539,0.68619 3.74503,1.47149 6.63398,2.25669 0.2959,-0.0708 0.5989,-0.138 0.9125,-0.2087 V 3.32495 C 6.32735,4.43914 3.46309,5.58517 1.99396,6.31028 Z"
     fill="#4c5c0f"
     id="path3024" />
  <path
     d="m 95.87698,20.1721 c 1.6558,-0.863 1.9835,-1.5917 1.9835,-1.5917 V 8.03979 c 0,0 -0.3277,0.69328 -1.9835,1.55631 -1.3952,0.7287 -3.6253,1.712 -7.0215,2.7201 v 10.576 c 3.3998,-1.0117 5.6263,-1.9914 7.0215,-2.7201 z"
     fill="#4c5c0f"
     id="path3026" />
  <path
     d="m 84.48338,24.0348 c 1.6383,-0.3785 3.0898,-0.7641 4.3722,-1.1461 v -10.576 c -1.286,0.3821 -2.7375,0.7676 -4.3722,1.1461 z"
     fill="#f39000"
     id="path3028" />
  <path
     d="m 80.88988,14.2121 v 10.576 c 1.2859,-0.244 2.4838,-0.4987 3.5936,-0.7534 v -10.576 c -1.1098,0.2582 -2.3041,0.5094 -3.5936,0.7534 z"
     fill="#ffffff"
     id="path3030" />
  <path
     d="m 76.21118,15.0009 v 10.576 c 1.6805,-0.2511 3.2377,-0.5129 4.6786,-0.7888 V 14.2122 c -1.4409,0.2759 -2.9981,0.5411 -4.6786,0.7887 z"
     fill="#f39000"
     id="path3032" />
  <path
     d="m 73.42798,15.3863 v 10.576 c 0.9618,-0.1238 1.8884,-0.2512 2.7832,-0.3856 v -10.576 c -0.8913,0.1344 -1.8179,0.2618 -2.7832,0.3856 z"
     fill="#ffffff"
     id="path3034" />
  <path
     d="m 65.34598,16.2212 v 10.576 c 2.9417,-0.237 5.6298,-0.5199 8.0854,-0.8347 v -10.576 c -2.4591,0.3148 -5.1472,0.5977 -8.0854,0.8347 z"
     fill="#4c5c0f"
     id="path3036" />
  <path
     d="m 62.41138,16.4334 v 10.576 c 1.0041,-0.0672 1.9835,-0.1379 2.9347,-0.2122 v -10.576 c -0.9512,0.0743 -1.9306,0.1485 -2.9347,0.2122 z"
     fill="#f39000"
     id="path3038" />
  <path
     d="m 60.97728,16.5254 v 10.576 c 0.4827,-0.0283 0.9618,-0.0601 1.4304,-0.0884 V 16.437 c -0.4686,0.0283 -0.9477,0.0601 -1.4304,0.0884 z"
     fill="#ffffff"
     id="path3040" />
  <path
     d="m 54.67818,16.8154 v 10.576 c 2.2055,-0.0743 4.3052,-0.1733 6.3028,-0.29 v -10.576 c -1.9976,0.1167 -4.0973,0.2158 -6.3028,0.29 z"
     fill="#df1b12"
     id="path3042" />
  <path
     d="m 53.51558,16.8508 v 10.576 c 0.3911,-0.0106 0.7786,-0.0248 1.1591,-0.0354 v -10.576 c -0.3805,0.0142 -0.768,0.0248 -1.1591,0.0354 z"
     fill="#ffffff"
     id="path3044" />
  <path
     d="m 49.84448,16.9357 v 10.576 c 1.2542,-0.0212 2.4802,-0.0495 3.671,-0.0849 v -10.576 c -1.1908,0.0354 -2.4168,0.0637 -3.671,0.0849 z"
     fill="#f39000"
     id="path3046" />
  <path
     d="m 48.93208,16.9497 c -0.6729,-0.0106 -1.3317,-0.0212 -1.987,-0.0354 v 10.576 c 0.6553,0.0141 1.3141,0.0247 1.987,0.0354 0.3065,-0.0036 0.6095,-0.0107 0.9125,-0.0142 v -10.576 c -0.303,0.0071 -0.606,0.0106 -0.9125,0.0142 z"
     fill="#ffffff"
     id="path3048" />
  <path
     d="m 42.22758,16.7834 v 10.576 c 1.5184,0.0566 3.0932,0.1026 4.7174,0.1344 V 16.9179 c -1.6242,-0.0354 -3.199,-0.0779 -4.7174,-0.1345 z"
     fill="#0e3b83"
     id="path3050" />
  <path
     d="m 32.77518,16.2424 v 10.576 c 2.8995,0.2299 6.0456,0.4139 9.4524,0.5412 v -10.576 c -3.4068,-0.1273 -6.5529,-0.3148 -9.4524,-0.5412 z"
     fill="#c5b300"
     id="path3052" />
  <path
     d="m 28.42408,15.8462 v 10.576 c 1.3846,0.1415 2.8325,0.2723 4.3475,0.3926 v -10.576 c -1.5114,-0.1167 -2.9629,-0.2476 -4.3475,-0.3926 z"
     fill="#f39000"
     id="path3054" />
  <path
     d="m 27.26518,15.7224 v 10.576 c 0.3804,0.0424 0.768,0.0849 1.1591,0.1238 v -10.576 c -0.3911,-0.0389 -0.7787,-0.0813 -1.1591,-0.1238 z"
     fill="#ffffff"
     id="path3056" />
  <path
     d="m 22.54758,15.1318 v 10.576 c 1.4797,0.2087 3.0475,0.4068 4.7174,0.5907 v -10.576 c -1.6664,-0.1804 -3.2377,-0.3784 -4.7174,-0.5907 z"
     fill="#f39000"
     id="path3058" />
  <path
     d="m 20.30348,14.7957 v 10.5759 c 0.7222,0.1168 1.4726,0.2264 2.2442,0.3361 v -10.576 c -0.7716,-0.1097 -1.5185,-0.2229 -2.2442,-0.336 z"
     fill="#ffffff"
     id="path3060" />
  <path
     d="m 10.67848,12.79 v 10.576 c 2.593,0.6968 5.7673,1.3901 9.625,2.0056 v -10.576 c -3.8613,-0.6155 -7.032,-1.3087 -9.625,-2.0056 z"
     fill="#4c5c0f"
     id="path3062" />
  <path
     d="M 1.98349,9.5961 C 0.32765,8.73307 0,8.03979 0,8.03979 V 18.5804 c 0,0 0.32765,0.7287 1.98349,1.5917 1.61357,0.8418 4.34043,2.0232 8.69499,3.194 V 12.7901 C 6.32392,11.6194 3.59706,10.438 1.98349,9.5961 Z"
     fill="#df1b12"
     id="path3064" />
  <path
     d="m 48.93198,16.95 c 30.3091,-0.4104 42.6222,-5.097 46.9486,-7.3537 1.6558,-0.86307 1.9835,-1.55635 1.9835,-1.55635 V 7.66148 c -0.5285,-0.56594 -1.0112,-0.81354 -1.0112,-0.81354 0,0.00354 -0.0352,-0.01768 -0.0352,-0.02122 -0.2114,-0.13087 -0.5003,-0.29712 -0.9477,-0.51642 1.226,0.64022 -0.2361,1.57048 -1.1802,2.05153 0.0105,-0.00354 0.0176,-0.00707 0.0281,-0.01061 -0.2395,0.11672 -0.4756,0.22638 -0.701,0.32542 -5.5912,2.41586 -18.32,6.11216 -45.0849,6.47296 C 22.16718,14.7888 9.43828,11.0925 3.8472,8.67664 3.62172,8.5776 3.38568,8.46794 3.14611,8.35122 3.15668,8.35476 3.16372,8.35829 3.17429,8.36183 2.23011,7.88078 0.76803,6.95052 1.99406,6.3103 1.55015,6.5296 1.25774,6.69585 1.04635,6.82672 c 0,0.00354 -0.03523,0.02476 -0.03523,0.02122 0,0 -0.48266,0.2476 -1.01112,0.81354 v 0.37847 c 0,0 0.32765,0.69328 1.98349,1.55635 4.32634,2.2567 16.63949,6.9469 46.94849,7.3537 z"
     fill="#ffffff"
     id="path3066" />
  <path
     d="M 3.82251,8.66602 C 3.82956,8.66955 3.8366,8.67309 3.84717,8.67663 H 3.8507 c 0,0 -0.0141,-0.00354 -0.02819,-0.01061 z"
     fill="#ffffff"
     id="path3068" />
</svg>
